<svg width="396" height="90" viewBox="0 0 396 90" fill="none" xmlns="http://www.w3.org/2000/svg">
<g filter="url(#filter0_di_103_338)">
<circle cx="353.324" cy="37.2074" r="16.2074" fill="url(#paint0_linear_103_338)"/>
</g>
<rect x="349.8" y="28.0466" width="7.04668" height="18.3214" rx="1.057" fill="white"/>
<rect x="362.484" y="33.6838" width="7.04668" height="18.3214" rx="1.057" transform="rotate(90 362.484 33.6838)" fill="white"/>
<path d="M131.744 42.0307H139.437V72.2844H131.744V60.6583H123.23V72.2844H115.493V42.0307H123.23V53.2246H131.744V42.0307ZM150.33 64.1159C151.05 65.8735 152.664 66.7523 155.171 66.7523C156.727 66.7523 158.038 66.2481 159.104 65.2396L164.29 68.8701C162.158 71.5497 159.06 72.8895 154.998 72.8895C151.339 72.8895 148.4 71.8234 146.181 69.6912C143.991 67.5303 142.896 64.8074 142.896 61.5227C142.896 58.2669 143.977 55.544 146.138 53.3542C148.299 51.1644 151.05 50.0695 154.393 50.0695C157.62 50.0695 160.285 51.15 162.388 53.311C164.492 55.472 165.543 58.1804 165.543 61.4363C165.543 62.3871 165.443 63.2803 165.241 64.1159H150.33ZM150.244 59.1457H158.542C157.966 57.1287 156.611 56.1203 154.479 56.1203C152.261 56.1203 150.849 57.1287 150.244 59.1457ZM183.797 50.6746H190.971V72.2844H183.797V70.2963C182.327 72.0251 180.281 72.8895 177.659 72.8895C174.778 72.8895 172.358 71.809 170.399 69.648C168.468 67.4582 167.503 64.7354 167.503 61.4795C167.503 58.2236 168.468 55.5152 170.399 53.3542C172.358 51.1644 174.778 50.0695 177.659 50.0695C180.281 50.0695 182.327 50.9339 183.797 52.6627V50.6746ZM175.974 64.8939C176.809 65.7583 177.904 66.1905 179.259 66.1905C180.613 66.1905 181.708 65.7583 182.543 64.8939C183.379 64.0295 183.797 62.8914 183.797 61.4795C183.797 60.0677 183.379 58.9296 182.543 58.0652C181.708 57.2008 180.613 56.7686 179.259 56.7686C177.904 56.7686 176.809 57.2008 175.974 58.0652C175.138 58.9296 174.721 60.0677 174.721 61.4795C174.721 62.8914 175.138 64.0295 175.974 64.8939ZM195.13 72.2844V40.7341H202.305V72.2844H195.13ZM219.84 57.5465H215.345V63.8134C215.345 64.7642 215.691 65.3549 216.382 65.5854C217.074 65.8159 218.226 65.8879 219.84 65.8015V72.2844C215.547 72.8031 212.521 72.4141 210.764 71.1175C209.035 69.7921 208.17 67.415 208.17 63.9863V57.5465H204.929V50.6746H208.17V46.7848L215.345 44.6239V50.6746H219.84V57.5465ZM236.338 50.0695C238.671 50.0695 240.573 50.8763 242.043 52.4898C243.541 54.0746 244.29 56.3652 244.29 59.3618V72.2844H237.115V60.2694C237.115 59.1457 236.813 58.2957 236.208 57.7194C235.632 57.1431 234.854 56.855 233.874 56.855C232.75 56.855 231.871 57.2008 231.238 57.8923C230.633 58.555 230.33 59.5202 230.33 60.788V72.2844H223.156V42.0307H230.33V52.8356C231.627 50.9916 233.629 50.0695 236.338 50.0695ZM261.463 50.6746H269.415L262.025 71.9387C260.872 75.1945 259.244 77.5428 257.141 78.9835C255.037 80.4241 252.314 81.0724 248.972 80.9284V74.1861C250.499 74.1861 251.652 73.9988 252.43 73.6242C253.208 73.2497 253.842 72.5726 254.331 71.5929L245.687 50.6746H253.726L258.092 63.2083L261.463 50.6746ZM302.644 42.0307V72.2844H294.95V55.9906L287.603 68.1353H286.825L279.521 56.0338V72.2844H271.785V42.0307H279.521L287.214 54.9534L294.95 42.0307H302.644ZM313.543 64.1159C314.264 65.8735 315.877 66.7523 318.384 66.7523C319.94 66.7523 321.251 66.2481 322.317 65.2396L327.503 68.8701C325.371 71.5497 322.274 72.8895 318.211 72.8895C314.552 72.8895 311.613 71.8234 309.394 69.6912C307.204 67.5303 306.11 64.8074 306.11 61.5227C306.11 58.2669 307.19 55.544 309.351 53.3542C311.512 51.1644 314.264 50.0695 317.606 50.0695C320.833 50.0695 323.498 51.15 325.602 53.311C327.705 55.472 328.757 58.1804 328.757 61.4363C328.757 62.3871 328.656 63.2803 328.454 64.1159H313.543ZM313.457 59.1457H321.755C321.179 57.1287 319.825 56.1203 317.692 56.1203C315.474 56.1203 314.062 57.1287 313.457 59.1457Z" fill="url(#paint1_linear_103_338)"/>
<path fill-rule="evenodd" clip-rule="evenodd" d="M0 21.4102C0 19.7804 2.08874 18.7174 3.87191 19.4397L33.3289 31.3722V85.9126C33.3289 88.3803 30.142 89.9735 27.4638 88.8448L1.45559 77.8827C0.561792 77.5061 0 76.7515 0 75.928V21.4102Z" fill="url(#paint2_linear_103_338)"/>
<path fill-rule="evenodd" clip-rule="evenodd" d="M33.317 31.377L67.4102 77.4222L33.317 63.322V31.377Z" fill="url(#paint3_linear_103_338)"/>
<path fill-rule="evenodd" clip-rule="evenodd" d="M66.6699 19.0267C67.412 18.0615 68.9321 17.7219 70.1696 18.2448L101.93 31.6666L67.3731 77.3966L45.0172 47.1885L66.6699 19.0267Z" fill="url(#paint4_linear_103_338)"/>
<path fill-rule="evenodd" clip-rule="evenodd" d="M67.382 77.3954L101.925 31.6584L102.135 82.9218C102.152 87.0338 96.8533 89.7037 92.382 87.8363L67.382 77.3954Z" fill="url(#paint5_linear_103_338)"/>
<defs>
<filter id="filter0_di_103_338" x="311.455" y="0.740797" width="83.738" height="83.7381" filterUnits="userSpaceOnUse" color-interpolation-filters="sRGB">
<feFlood flood-opacity="0" result="BackgroundImageFix"/>
<feColorMatrix in="SourceAlpha" type="matrix" values="0 0 0 0 0 0 0 0 0 0 0 0 0 0 0 0 0 0 127 0" result="hardAlpha"/>
<feOffset dy="5.40245"/>
<feGaussianBlur stdDeviation="12.8308"/>
<feComposite in2="hardAlpha" operator="out"/>
<feColorMatrix type="matrix" values="0 0 0 0 0.0862745 0 0 0 0 0.470588 0 0 0 0 0.94902 0 0 0 0.2 0"/>
<feBlend mode="normal" in2="BackgroundImageFix" result="effect1_dropShadow_103_338"/>
<feBlend mode="normal" in="SourceGraphic" in2="effect1_dropShadow_103_338" result="shape"/>
<feColorMatrix in="SourceAlpha" type="matrix" values="0 0 0 0 0 0 0 0 0 0 0 0 0 0 0 0 0 0 127 0" result="hardAlpha"/>
<feOffset dy="5.40245"/>
<feGaussianBlur stdDeviation="2.70123"/>
<feComposite in2="hardAlpha" operator="arithmetic" k2="-1" k3="1"/>
<feColorMatrix type="matrix" values="0 0 0 0 0 0 0 0 0 0 0 0 0 0 0 0 0 0 0.12 0"/>
<feBlend mode="normal" in2="shape" result="effect2_innerShadow_103_338"/>
</filter>
<linearGradient id="paint0_linear_103_338" x1="334.593" y1="8.28834" x2="408.264" y2="16.2146" gradientUnits="userSpaceOnUse">
<stop stop-color="#3A8EF6"/>
<stop offset="1" stop-color="#6F3AFA"/>
</linearGradient>
<linearGradient id="paint1_linear_103_338" x1="96.2241" y1="9.10794" x2="516.555" y2="190.837" gradientUnits="userSpaceOnUse">
<stop stop-color="#3A8EF6"/>
<stop offset="1" stop-color="#6F3AFA"/>
</linearGradient>
<linearGradient id="paint2_linear_103_338" x1="-2.59447" y1="-8.24376" x2="73.831" y2="-4.32908" gradientUnits="userSpaceOnUse">
<stop stop-color="#3A8EF6"/>
<stop offset="1" stop-color="#6F3AFA"/>
</linearGradient>
<linearGradient id="paint3_linear_103_338" x1="41.8403" y1="26.2608" x2="92.1664" y2="79.6373" gradientUnits="userSpaceOnUse">
<stop stop-color="#3D93FF"/>
<stop offset="1" stop-color="#65A8FB"/>
</linearGradient>
<linearGradient id="paint4_linear_103_338" x1="40.5869" y1="-5.29281" x2="170.059" y2="8.05446" gradientUnits="userSpaceOnUse">
<stop stop-color="#3A8EF6"/>
<stop offset="1" stop-color="#6F3AFA"/>
</linearGradient>
<linearGradient id="paint5_linear_103_338" x1="76.0703" y1="25.3491" x2="137.707" y2="79.3844" gradientUnits="userSpaceOnUse">
<stop stop-color="#65A8FB"/>
<stop offset="1" stop-color="#65A8FB"/>
</linearGradient>
</defs>
</svg>
