<svg width="32" height="32" viewBox="0 0 32 32" fill="none" xmlns="http://www.w3.org/2000/svg">
<path fill-rule="evenodd" clip-rule="evenodd" d="M2.21185 15.9208C2.21185 10.1261 2.21185 7.2288 3.59267 5.14194C4.20928 4.21005 5.00735 3.41197 5.93924 2.79537C8.0261 1.41455 10.9234 1.41455 16.7181 1.41455C22.5128 1.41455 25.4101 1.41455 27.497 2.79537C28.4289 3.41197 29.2269 4.21005 29.8435 5.14194C31.2244 7.2288 31.2244 10.1261 31.2244 15.9208V15.9208V15.9208C31.2244 21.7155 31.2244 24.6128 29.8435 26.6997C29.2269 27.6316 28.4289 28.4296 27.497 29.0462C25.4101 30.4271 22.5128 30.4271 16.7181 30.4271H16.7181H16.7181C10.9234 30.4271 8.0261 30.4271 5.93924 29.0462C5.00735 28.4296 4.20928 27.6316 3.59267 26.6997C2.21185 24.6128 2.21185 21.7155 2.21185 15.9208ZM24.2278 15.9212C24.2278 20.0689 20.8654 23.4313 16.7177 23.4313C12.57 23.4313 9.20766 20.0689 9.20766 15.9212C9.20766 11.7735 12.57 8.41116 16.7177 8.41116C20.8654 8.41116 24.2278 11.7735 24.2278 15.9212ZM16.7177 20.8904C19.4621 20.8904 21.6869 18.6656 21.6869 15.9212C21.6869 13.1768 19.4621 10.952 16.7177 10.952C13.9733 10.952 11.7485 13.1768 11.7485 15.9212C11.7485 18.6656 13.9733 20.8904 16.7177 20.8904ZM24.5245 9.79873C25.4991 9.79873 26.2892 9.00868 26.2892 8.03409C26.2892 7.05951 25.4991 6.26945 24.5245 6.26945C23.5499 6.26945 22.7599 7.05951 22.7599 8.03409C22.7599 9.00868 23.5499 9.79873 24.5245 9.79873Z" fill="#1678F2"/>
</svg>
