<svg width="32" height="30" viewBox="0 0 32 30" fill="none" xmlns="http://www.w3.org/2000/svg">
<path d="M2.29581 5.1203C2.29581 4.18995 2.62253 3.42242 3.27596 2.81772C3.92938 2.21299 4.77887 1.91064 5.82435 1.91064C6.85119 1.91064 7.68197 2.20833 8.31674 2.80377C8.97017 3.41779 9.29689 4.21786 9.29689 5.20403C9.29689 6.09715 8.97952 6.8414 8.34475 7.43683C7.69132 8.05085 6.83251 8.35786 5.76835 8.35786H5.74034C4.71351 8.35786 3.88273 8.05085 3.24795 7.43683C2.61318 6.82281 2.29581 6.05062 2.29581 5.1203ZM2.65986 29.5416V10.8977H8.87683V29.5416H2.65986ZM12.3214 29.5416H18.5383V19.1311C18.5383 18.4799 18.613 17.9775 18.7624 17.624C19.0237 16.9914 19.4205 16.4564 19.9525 16.0192C20.4846 15.5819 21.1521 15.3633 21.9549 15.3633C24.0459 15.3633 25.0913 16.7681 25.0913 19.5777V29.5416H31.3083V18.852C31.3083 16.0982 30.6549 14.0096 29.348 12.5862C28.0411 11.1628 26.3142 10.4511 24.1672 10.4511C21.7588 10.4511 19.8825 11.4838 18.5383 13.5491V13.605H18.5103L18.5383 13.5491V10.8977H12.3214C12.3587 11.4931 12.3774 13.3444 12.3774 16.4518C12.3774 19.5591 12.3587 23.9223 12.3214 29.5416Z" fill="#1678F2"/>
</svg>
