<svg width="32" height="25" viewBox="0 0 32 25" fill="none" xmlns="http://www.w3.org/2000/svg">
<path d="M21.3853 0.00522496V0H22.7456L23.2427 0.0992743C23.5741 0.163724 23.8749 0.248186 24.1453 0.352685C24.4156 0.457184 24.6772 0.579109 24.9301 0.718432C25.183 0.857756 25.4123 0.999718 25.6181 1.14427C25.8222 1.28709 26.0053 1.43861 26.1675 1.59884C26.3279 1.76081 26.5782 1.80261 26.9183 1.72424C27.2584 1.64586 27.6247 1.537 28.0171 1.39768C28.4095 1.25835 28.7976 1.1016 29.1812 0.927431C29.5649 0.753256 29.7987 0.64267 29.8824 0.595645C29.9643 0.546897 30.0079 0.520772 30.0132 0.517271L30.0184 0.509434L30.0445 0.496371L30.0707 0.483309L30.0969 0.470246L30.123 0.457184L30.1283 0.449347L30.1361 0.444122L30.144 0.438897L30.1492 0.431059L30.1754 0.423222L30.2015 0.417997L30.1963 0.457184L30.1884 0.496371L30.1754 0.535558L30.1623 0.574746L30.1492 0.60087L30.1361 0.626995L30.123 0.666182C30.1143 0.692307 30.1056 0.727132 30.0969 0.770682C30.0882 0.814232 30.0053 0.98838 29.8483 1.29318C29.6914 1.59798 29.4952 1.90711 29.2597 2.22061C29.0243 2.53411 28.8133 2.77095 28.6267 2.9312C28.4383 3.09318 28.3136 3.20638 28.2525 3.27083C28.1915 3.337 28.1174 3.39795 28.0302 3.4537L27.8993 3.53991L27.8732 3.55297L27.847 3.56604L27.8418 3.57387L27.8339 3.5791L27.8261 3.58432L27.8209 3.59216L27.7947 3.60522L27.7685 3.61829L27.7633 3.62612L27.7555 3.63135L27.7476 3.63657L27.7424 3.64441L27.7372 3.65225L27.7293 3.65747L27.7215 3.6627L27.7162 3.67053H27.847L28.5795 3.51379C29.0679 3.40929 29.5344 3.28303 29.9791 3.13498L30.6855 2.89985L30.764 2.87373L30.8032 2.86067L30.8294 2.8476L30.8555 2.83454L30.8817 2.82148L30.9079 2.80842L30.9602 2.80058L31.0125 2.79535V2.8476L30.9994 2.85283L30.9863 2.86067L30.9811 2.8685L30.9733 2.87373L30.9654 2.87895L30.9602 2.88679L30.955 2.89463L30.9471 2.89985L30.9393 2.90508L30.934 2.91292L30.9288 2.92075L30.9209 2.92598L30.9079 2.9521L30.8948 2.97823L30.8869 2.98345C30.8835 2.98868 30.7727 3.1367 30.5547 3.42757C30.3367 3.72017 30.219 3.8682 30.2015 3.8717C30.1841 3.87692 30.1597 3.90305 30.1283 3.95007C30.0986 3.99882 29.9137 4.19303 29.5737 4.53265C29.2336 4.87228 28.9005 5.17444 28.5743 5.43918C28.2465 5.70566 28.0808 6.03308 28.0773 6.42148C28.072 6.80812 28.052 7.2453 28.0171 7.73294C27.9822 8.22061 27.9168 8.74745 27.8209 9.31349C27.725 9.87954 27.5767 10.5196 27.3761 11.2337C27.1756 11.9477 26.9314 12.6444 26.6436 13.3236C26.3559 14.0029 26.055 14.6125 25.7411 15.1524C25.4271 15.6923 25.1394 16.1495 24.8778 16.5239C24.6161 16.8984 24.3502 17.2511 24.0798 17.582C23.8095 17.9129 23.4677 18.2856 23.0544 18.7001C22.6393 19.1129 22.4126 19.3393 22.3742 19.3794C22.3341 19.4177 22.1632 19.5605 21.8614 19.8078C21.5614 20.0569 21.2388 20.3059 20.8934 20.555C20.5499 20.8023 20.2342 21.0087 19.9464 21.1742C19.6586 21.3396 19.3116 21.5286 18.9052 21.7411C18.5006 21.9553 18.0628 22.1538 17.5919 22.3367C17.121 22.5196 16.624 22.6894 16.1008 22.8461C15.5775 23.0029 15.0718 23.1248 14.5834 23.2119C14.0951 23.299 13.5414 23.373 12.9222 23.4339L11.9935 23.5254V23.5384H10.293V23.5254L10.0707 23.5123C9.92243 23.5036 9.80033 23.4949 9.7044 23.4862C9.6085 23.4775 9.24659 23.4296 8.61872 23.3425C7.99086 23.2554 7.49817 23.1683 7.14063 23.0813C6.78311 22.9942 6.25116 22.8287 5.54481 22.5849C4.83846 22.3411 4.23415 22.0946 3.73186 21.8456C3.23132 21.5982 2.91739 21.4415 2.79006 21.3753C2.66449 21.3109 2.52322 21.2308 2.36625 21.135L2.1308 20.9913L2.1256 20.9834L2.11772 20.9782L2.10988 20.973L2.10464 20.9652L2.07848 20.9521L2.05232 20.939L2.04712 20.9312L2.03924 20.926L2.03139 20.9207L2.02616 20.9129L2.02095 20.9051L2.01308 20.8998H2V20.8476L2.02616 20.8528L2.05232 20.8607L2.17005 20.8737C2.24853 20.8824 2.46219 20.8955 2.81099 20.9129C3.15982 20.9303 3.53042 20.9303 3.92283 20.9129C4.31524 20.8955 4.7164 20.8563 5.12623 20.7953C5.5361 20.7344 6.02008 20.6299 6.57817 20.4818C7.13629 20.3338 7.64904 20.1579 8.11646 19.9541C8.58212 19.7486 8.91348 19.5954 9.11057 19.4943C9.30589 19.3951 9.60413 19.2104 10.0053 18.9405L10.607 18.5355L10.6122 18.5277L10.62 18.5225L10.6279 18.5173L10.6331 18.5094L10.6383 18.5016L10.6462 18.4964L10.6541 18.4911L10.6593 18.4833L10.6854 18.4755L10.7116 18.4702L10.7168 18.4441L10.7247 18.418L10.7326 18.4128L10.7378 18.4049L10.5285 18.3919C10.389 18.3832 10.2538 18.3744 10.123 18.3657C9.99217 18.357 9.78725 18.3178 9.5082 18.2482C9.22916 18.1785 8.92831 18.074 8.60564 17.9347C8.283 17.7954 7.96907 17.6299 7.66385 17.4383C7.35865 17.2467 7.13801 17.0873 7.00198 16.9602C6.86769 16.8348 6.69328 16.6572 6.47876 16.4273C6.26599 16.1957 6.08111 15.9579 5.92414 15.7141C5.76718 15.4702 5.6172 15.1889 5.4742 14.8702L5.25704 14.3948L5.24396 14.3556L5.23088 14.3164L5.22303 14.2903L5.2178 14.2641L5.25704 14.2694L5.29628 14.2772L5.58405 14.3164C5.77592 14.3425 6.07677 14.3512 6.4866 14.3425C6.89647 14.3338 7.17987 14.3164 7.33684 14.2903C7.4938 14.2641 7.58973 14.2467 7.62461 14.238L7.67693 14.225L7.74233 14.2119L7.80773 14.1988L7.81297 14.191L7.82081 14.1858L7.82869 14.1805L7.83389 14.1727L7.78157 14.1596L7.72925 14.1466L7.67693 14.1335L7.62461 14.1205L7.57228 14.1074C7.53741 14.0987 7.47638 14.0813 7.38916 14.0551C7.30196 14.029 7.06651 13.9332 6.68281 13.7678C6.29914 13.6023 5.99392 13.4412 5.76718 13.2845C5.53988 13.1273 5.32315 12.9553 5.11839 12.7698C4.91433 12.5817 4.69024 12.3396 4.44605 12.0435C4.20189 11.7475 3.98389 11.4035 3.79203 11.0116C3.60019 10.6197 3.4563 10.2453 3.36037 9.88824C3.26482 9.53329 3.20179 9.1704 3.17204 8.80406L3.12492 8.25544L3.15108 8.26066L3.17724 8.2685L3.2034 8.28156L3.22957 8.29463L3.25573 8.30769L3.28189 8.32075L3.68738 8.50362C3.95773 8.62555 4.29345 8.73005 4.69458 8.81712C5.09573 8.9042 5.33552 8.95211 5.41401 8.96081L5.53173 8.97387H5.76718L5.76197 8.96603L5.7541 8.96081L5.74625 8.95558L5.74102 8.94775L5.73581 8.93991L5.72794 8.93468L5.72009 8.92946L5.71486 8.92162L5.6887 8.90856L5.66253 8.8955L5.65733 8.88766L5.64945 8.88243L5.64161 8.87721L5.63637 8.86937L5.61021 8.85631L5.58405 8.84325L5.57885 8.83541C5.57361 8.83191 5.49861 8.77618 5.35383 8.66821C5.21081 8.55849 5.06083 8.41655 4.90387 8.24238C4.7469 8.0682 4.58993 7.88533 4.43297 7.69375C4.27571 7.50174 4.13565 7.29631 4.01439 7.07982C3.89233 6.86212 3.76325 6.58517 3.62721 6.24905C3.49293 5.91466 3.3909 5.57765 3.32113 5.23802C3.25138 4.8984 3.21214 4.56314 3.2034 4.23222C3.19469 3.9013 3.2034 3.61829 3.22957 3.38316C3.25573 3.14804 3.30805 2.88243 3.38653 2.58636C3.46501 2.29028 3.5784 1.97679 3.72662 1.64586L3.94899 1.14949L3.96207 1.1103L3.97515 1.07112L3.98303 1.06589L3.98823 1.05805L3.99347 1.05022L4.00131 1.04499L4.00919 1.05022L4.01439 1.05805L4.01963 1.06589L4.02747 1.07112L4.03535 1.07634L4.04055 1.08418L4.04579 1.09202L4.05364 1.09724L4.06672 1.12337L4.0798 1.14949L4.08767 1.15472L4.09288 1.16255L4.44605 1.55443C4.6815 1.81567 4.96056 2.10741 5.2832 2.42961C5.60587 2.7518 5.78463 2.919 5.8195 2.9312C5.8544 2.94513 5.89798 2.98518 5.9503 3.05138C6.00263 3.11583 6.17704 3.26996 6.47352 3.51379C6.77003 3.75761 7.15808 4.04064 7.63769 4.36284C8.11732 4.68504 8.64925 5.0029 9.23351 5.3164C9.81778 5.6299 10.4456 5.91291 11.1171 6.16545C11.7886 6.418 12.2595 6.58345 12.5298 6.66182C12.8001 6.7402 13.2623 6.84034 13.9163 6.96226C14.5703 7.08418 15.0631 7.16256 15.3944 7.19738C15.7258 7.23221 15.9525 7.25225 16.0746 7.25747L16.2577 7.2627L16.2525 7.22351L16.2446 7.18432L16.1923 6.85776C16.1574 6.64006 16.14 6.33526 16.14 5.94339C16.14 5.55152 16.1705 5.19014 16.2316 4.85921C16.2926 4.52829 16.3842 4.19303 16.5063 3.85341C16.6283 3.51379 16.7478 3.2412 16.8647 3.0357C16.9833 2.83193 17.1385 2.59942 17.3303 2.33817C17.5222 2.07692 17.7707 1.80697 18.0759 1.5283C18.3811 1.24963 18.7299 1.00144 19.1223 0.783744C19.5148 0.566046 19.8767 0.400572 20.208 0.287373C20.5394 0.174174 20.8185 0.100136 21.0452 0.065312C21.2719 0.0304876 21.3853 0.0104499 21.3853 0.00522496V0.00522496Z" fill="#1678F2"/>
</svg>
