<svg width="34" height="25" viewBox="0 0 34 25" fill="none" xmlns="http://www.w3.org/2000/svg">
<path d="M18.2049 23.1703L11.6575 23.0479C9.53753 23.0053 7.41233 23.0904 5.33397 22.6486C2.17231 21.9886 1.94833 18.7522 1.71396 16.0376C1.39101 12.2211 1.51603 8.3353 2.12547 4.55066C2.46952 2.42708 3.82349 1.15993 5.91735 1.02204C12.9857 0.521611 20.101 0.580916 27.1537 0.814383C27.8985 0.835785 28.6485 0.952763 29.383 1.08592C33.0084 1.73534 33.0968 5.40284 33.3318 8.49018C33.5662 11.6094 33.4673 14.7446 33.0193 17.8426C32.6599 20.4076 31.9723 22.5586 29.0704 22.7663C25.4346 23.0378 21.8822 23.2564 18.2361 23.1868C18.2363 23.1703 18.2153 23.1703 18.2049 23.1703ZM14.3556 16.6764C17.0956 15.0687 19.7832 13.4879 22.5074 11.891C19.7624 10.2834 17.0799 8.70257 14.3556 7.10572V16.6764Z" fill="#1678F2"/>
</svg>
